<?xml version="1.0" encoding="utf-8"?>
<!-- Generator: Adobe Illustrator 16.0.0, SVG Export Plug-In . SVG Version: 6.00 Build 0)  -->
<!DOCTYPE svg PUBLIC "-//W3C//DTD SVG 1.1//EN" "http://www.w3.org/Graphics/SVG/1.1/DTD/svg11.dtd">
<svg version="1.1" id="Layer_1" xmlns="http://www.w3.org/2000/svg" xmlns:xlink="http://www.w3.org/1999/xlink" x="0px" y="0px"
	 width="1024px" height="1024px" viewBox="0 0 1024 1024" enable-background="new 0 0 1024 1024" xml:space="preserve">
<g>
	<path fill="none" d="M514.712,456.745c4.834,0,8.73-1.362,11.688-4.089c2.958-2.726,4.437-6.274,4.437-10.646
		c0-4.269-1.479-7.727-4.437-10.376c-2.959-2.648-6.854-3.974-11.688-3.974c-4.733,0-8.577,1.338-11.533,4.012
		c-2.959,2.675-4.437,6.121-4.437,10.338c0,4.372,1.478,7.918,4.437,10.646C506.135,455.383,509.982,456.745,514.712,456.745z"/>
	<path fill="none" d="M399.839,469.553c0.154,0,0.411,0.051,0.771,0.154c8.537,1.389,12.807,6.712,12.807,15.97v8.949
		c0,8.489,0.501,14.479,1.504,17.978c1.003,3.495,2.712,6.35,5.13,8.562c2.211,2.054,5.001,3.674,8.371,4.86
		c3.367,1.18,6.853,1.771,10.453,1.771c2.828,0,5.092-0.721,6.789-2.16c1.697-1.438,2.546-3.344,2.546-5.709
		c0-4.833-2.906-7.688-8.718-8.562c-1.132-0.154-1.983-0.312-2.546-0.463c-2.366-0.463-3.975-1.351-4.821-2.661
		c-0.847-1.312-1.273-4.511-1.273-9.605v-11.418c0-8.175-0.743-13.935-2.234-17.278c-1.495-3.346-4.195-6.276-8.104-8.798
		c3.806-2.365,6.48-5.349,8.03-8.945c1.543-3.603,2.314-9.261,2.314-16.976v-11.341c0-5.194,0.486-8.521,1.466-9.99
		c0.974-1.463,2.751-2.401,5.32-2.813c0.257-0.05,0.668-0.103,1.234-0.154c6.223-0.977,9.335-3.883,9.335-8.718
		c0-2.317-0.823-4.178-2.469-5.593c-1.649-1.415-3.832-2.123-6.561-2.123c-4.369,0-8.368,0.734-11.993,2.2
		c-3.629,1.466-6.522,3.51-8.683,6.133c-1.852,2.365-3.164,5.131-3.935,8.294c-0.771,3.163-1.157,8.679-1.157,16.548v9.181
		c0,8.898-3.421,13.99-10.261,15.275c-1.852,0.358-3.267,0.694-4.243,1.003c-2.212,0.566-3.819,1.492-4.822,2.777
		c-1.003,1.283-1.504,3.032-1.504,5.244c0,2.52,0.588,4.448,1.774,5.785C395.544,468.268,397.37,469.142,399.839,469.553z"/>
	<path fill="none" d="M601.806,469.926c-1.49,3.343-2.235,9.104-2.235,17.281v11.418v4.089c0,2.726-0.556,4.706-1.659,5.94
		c-1.105,1.233-3.227,2.083-6.364,2.546c-3.805,0.617-6.312,1.542-7.521,2.776c-1.208,1.235-1.812,3.061-1.812,5.479
		c0,2.623,0.813,4.668,2.433,6.134c1.619,1.467,3.868,2.198,6.75,2.198c4.114,0,8.062-0.756,11.844-2.274
		c3.782-1.516,6.673-3.483,8.679-5.9c1.854-2.21,3.166-4.898,3.938-8.062c0.769-3.164,1.154-8.809,1.154-16.935v-8.949
		c0-9.052,3.626-14.27,10.878-15.661c1.494-0.257,2.651-0.463,3.475-0.617c2.16-0.511,3.777-1.449,4.857-2.812
		c1.08-1.362,1.62-3.173,1.62-5.439c0-2.157-0.515-3.895-1.543-5.207c-1.028-1.309-2.623-2.25-4.783-2.813
		c-0.926-0.254-2.237-0.511-3.935-0.771c-7.047-1.389-10.569-6.558-10.569-15.507v-9.181c0-8.644-0.515-14.67-1.543-18.091
		c-1.028-3.419-2.802-6.29-5.323-8.604c-2.212-2.054-4.964-3.648-8.255-4.783c-3.292-1.131-6.84-1.697-10.646-1.697
		c-2.881,0-5.108,0.723-6.673,2.162c-1.571,1.441-2.354,3.447-2.354,6.019c0,2.521,0.62,4.398,1.854,5.632
		c1.231,1.234,3.726,2.109,7.48,2.623c2.88,0.412,4.94,1.248,6.172,2.508c1.237,1.264,1.854,3.102,1.854,5.519v4.938v11.341
		c0,7.715,0.769,13.373,2.312,16.976c1.543,3.598,4.191,6.584,7.946,8.946C605.979,463.663,603.304,466.595,601.806,469.926z"/>
	<path fill="none" d="M497.357,519.467l5.86,2.083c0.257,0.048,0.529,0.116,0.812,0.193c0.279,0.077,0.524,0.115,0.73,0.115
		c0.822,0,1.568-0.244,2.237-0.732c0.668-0.489,1.183-1.146,1.543-1.968l23.067-45.209c0.203-0.46,0.369-0.884,0.501-1.272
		c0.128-0.386,0.19-0.707,0.19-0.965c0-0.511-0.245-0.923-0.729-1.233c-0.491-0.31-1.148-0.464-1.971-0.464H511.24
		c-1.697,0-2.92,0.271-3.664,0.812c-0.746,0.54-1.35,1.685-1.812,3.433l-10.955,40.117c-0.051,0.256-0.091,0.529-0.112,0.812
		c-0.027,0.28-0.039,0.705-0.039,1.271c0,0.617,0.229,1.196,0.691,1.736C495.814,518.737,496.482,519.158,497.357,519.467z"/>
	<path fill="none" d="M570.771,618.26c-40.401,27.529-91.226,36.809-135.726,43.791c15.871,1.578,32.418,4.578,50.027,9.066
		c7.844,1.998,15.92,3.012,24.003,3.012c9.353,0,18.741-1.287,28.702-3.936c24.222-6.434,49.756-9.562,78.06-9.562
		c8.526,0,17.467,0.295,26.572,0.875c16.234,1.036,32.677,2.565,48.578,4.043c0.945,0.088,1.892,0.174,2.838,0.262
		C690.861,604.128,661.924,556.149,570.771,618.26z"/>
	<path fill="none" d="M656.245,685.58c-12.851-4.57-26.141-5.266-40.211-6.001l-0.266-0.015c-3.659,0.388-7.368,0.721-10.958,1.044
		c-8.187,0.735-16.65,1.496-24.773,2.926c-17.15,3.012-27.555,10.041-32.746,22.121c-3.521,8.188-4.347,17.358-2.525,28.038
		c3.122,18.305,12.826,31.999,28.842,40.7c11.555,6.274,24.107,9.457,37.309,9.457c7.611,0,15.641-1.054,23.864-3.133
		c29.275-7.4,46.821-30.446,45.791-60.144C679.929,702.12,672.426,691.327,656.245,685.58z"/>
	<path fill="none" d="M448.384,686.23c-8.493-2.606-18.034-4.324-28.361-5.105c-8.424-0.639-14.853-0.924-20.846-0.924
		c-12.462,0-22.742,1.269-32.351,3.99c-12.377,3.507-20.161,9.397-24.495,18.54c-9.389,19.798-3.303,48.007,13.566,62.883
		c13.605,12.003,30.296,17.867,51.029,17.929c0.675,0,1.362,0.012,2.05,0.024c0.639,0.012,1.278,0.023,1.917,0.023
		c0.79,0,1.436-0.019,2.033-0.058c41.706-2.7,59.169-29.641,61.607-53.952C476.815,706.834,468.017,692.248,448.384,686.23z"/>
	<path fill="none" d="M510.893,909c81.711,0,135.445-54.438,162.325-121.979c-9.576,6.472-20.678,11.048-33.18,13.645
		c-8.829,1.835-17.531,2.765-25.866,2.765c-15.5,0.001-30.319-3.212-44.045-9.548c-30.224-13.957-46.246-38.09-47.623-71.729
		c-0.231-5.643-1.157-10.295-2.752-13.829c-1.517-3.348-5.495-5.514-10.134-5.514c-1.185,0-2.355,0.146-3.478,0.433
		c-5.521,1.407-9.256,6.076-9.751,12.184c-0.171,2.104-0.298,4.278-0.421,6.381c-0.328,5.619-0.667,11.43-1.883,17.111
		c-5.812,27.147-22.971,46.746-49.623,56.679c-14.539,5.416-28.865,8.163-42.58,8.163c-17.219,0-33.687-4.318-49.098-12.824
		C383.496,864.193,434.268,909,510.893,909z"/>
	<path fill="#3ABAD4" d="M394.824,659.604l4.099-0.381l0.109,1.71c3.32-0.137,6.676-0.206,10.019-0.206
		c8.495,0,17.141,0.443,25.994,1.324c44.5-6.982,95.325-16.262,135.726-43.791c91.152-62.11,120.09-14.132,123.055,47.552
		c3.233,0.301,6.467,0.602,9.701,0.896c2.021,0.184,4.037,0.429,6.035,0.701C701.794,476.604,592.991,80.24,490.546,96.14
		c-69.29,10.75-153.508,400.222-172.583,570.595c17.024-1.674,34.149-3.232,50.819-4.748
		C377.463,661.198,386.145,660.409,394.824,659.604z M601.89,452.196c-1.543-3.603-2.312-9.261-2.312-16.976V423.88v-4.938
		c0-2.417-0.617-4.255-1.854-5.519c-1.231-1.26-3.292-2.096-6.172-2.508c-3.755-0.514-6.249-1.389-7.48-2.623
		c-1.234-1.233-1.854-3.111-1.854-5.632c0-2.571,0.783-4.577,2.354-6.019c1.564-1.438,3.792-2.162,6.673-2.162
		c3.806,0,7.354,0.566,10.646,1.697c3.291,1.135,6.043,2.729,8.255,4.783c2.521,2.314,4.295,5.186,5.323,8.604
		c1.028,3.421,1.543,9.447,1.543,18.091v9.181c0,8.949,3.522,14.118,10.569,15.507c1.697,0.261,3.009,0.518,3.935,0.771
		c2.16,0.563,3.755,1.505,4.783,2.813c1.028,1.312,1.543,3.05,1.543,5.207c0,2.267-0.54,4.077-1.62,5.439
		c-1.08,1.363-2.697,2.302-4.857,2.812c-0.823,0.154-1.98,0.36-3.475,0.617c-7.252,1.392-10.878,6.609-10.878,15.661v8.949
		c0,8.126-0.386,13.771-1.154,16.935c-0.771,3.164-2.084,5.853-3.938,8.062c-2.006,2.417-4.896,4.385-8.679,5.9
		c-3.781,1.519-7.729,2.274-11.844,2.274c-2.882,0-5.131-0.731-6.75-2.198c-1.619-1.466-2.433-3.511-2.433-6.134
		c0-2.418,0.604-4.243,1.812-5.479c1.208-1.234,3.716-2.159,7.521-2.776c3.138-0.463,5.259-1.312,6.364-2.546
		c1.104-1.234,1.659-3.215,1.659-5.94v-4.089v-11.418c0-8.178,0.745-13.938,2.235-17.281c1.498-3.331,4.173-6.263,8.03-8.783
		C606.081,458.78,603.433,455.794,601.89,452.196z M503.179,431.672c2.956-2.674,6.8-4.012,11.533-4.012
		c4.834,0,8.729,1.325,11.688,3.974c2.957,2.649,4.437,6.107,4.437,10.376c0,4.372-1.479,7.921-4.437,10.646
		c-2.958,2.727-6.854,4.089-11.688,4.089c-4.729,0-8.577-1.362-11.533-4.089c-2.959-2.729-4.437-6.274-4.437-10.646
		C498.742,437.793,500.22,434.347,503.179,431.672z M494.696,515.189c0.021-0.283,0.062-0.557,0.112-0.812l10.955-40.117
		c0.463-1.748,1.066-2.893,1.812-3.433c0.744-0.542,1.967-0.812,3.664-0.812H529.6c0.822,0,1.479,0.154,1.971,0.464
		c0.484,0.311,0.729,0.723,0.729,1.233c0,0.258-0.062,0.579-0.19,0.965c-0.132,0.389-0.298,0.812-0.501,1.272l-23.067,45.209
		c-0.36,0.822-0.875,1.479-1.543,1.968c-0.669,0.488-1.415,0.732-2.237,0.732c-0.206,0-0.451-0.038-0.73-0.115
		c-0.283-0.077-0.556-0.146-0.812-0.193l-5.86-2.083c-0.875-0.309-1.543-0.729-2.009-1.271c-0.463-0.54-0.691-1.119-0.691-1.736
		C494.657,515.895,494.669,515.47,494.696,515.189z M394.091,455.9c1.003-1.285,2.61-2.211,4.822-2.777
		c0.977-0.309,2.392-0.645,4.243-1.003c6.84-1.285,10.261-6.377,10.261-15.275v-9.181c0-7.869,0.386-13.385,1.157-16.548
		c0.771-3.163,2.083-5.929,3.935-8.294c2.16-2.623,5.054-4.667,8.683-6.133c3.625-1.466,7.624-2.2,11.993-2.2
		c2.729,0,4.911,0.708,6.561,2.123c1.646,1.415,2.469,3.275,2.469,5.593c0,4.835-3.112,7.741-9.335,8.718
		c-0.566,0.052-0.978,0.104-1.234,0.154c-2.569,0.412-4.347,1.351-5.32,2.813c-0.979,1.469-1.466,4.796-1.466,9.99v11.341
		c0,7.715-0.771,13.373-2.314,16.976c-1.55,3.597-4.225,6.58-8.03,8.945c3.908,2.521,6.608,5.452,8.104,8.798
		c1.491,3.344,2.234,9.104,2.234,17.278v11.418c0,5.095,0.427,8.294,1.273,9.605c0.847,1.311,2.455,2.198,4.821,2.661
		c0.562,0.151,1.414,0.309,2.546,0.463c5.812,0.874,8.718,3.729,8.718,8.562c0,2.365-0.849,4.271-2.546,5.709
		c-1.697,1.439-3.961,2.16-6.789,2.16c-3.601,0-7.086-0.592-10.453-1.771c-3.37-1.187-6.16-2.807-8.371-4.86
		c-2.418-2.212-4.127-5.066-5.13-8.562c-1.003-3.498-1.504-9.488-1.504-17.978v-8.949c0-9.258-4.27-14.581-12.807-15.97
		c-0.36-0.104-0.617-0.154-0.771-0.154c-2.469-0.411-4.295-1.285-5.478-2.623c-1.187-1.337-1.774-3.266-1.774-5.785
		C392.587,458.933,393.088,457.184,394.091,455.9z"/>
	<path fill="#3ABAD4" d="M707.793,726.359c0.172-1.335,0.344-2.67,0.498-4.011c0.446-3.866,0.799-7.958,1.069-12.241
		c-0.717,3.54-1.143,7.071-1.237,10.48C708.067,722.55,707.945,724.465,707.793,726.359z"/>
	<path fill="#3ABAD4" d="M673.218,787.021C646.338,854.562,592.604,909,510.893,909c-76.625,0-127.397-44.807-158.107-118.063
		c-3.068-1.693-6.098-3.537-9.079-5.562c-13.566-9.223-23.057-21.538-28.042-36.145c12.607,101.058,95.316,179.099,195.477,179.099
		c103.041,0,175.932-83.264,194.508-187.979c-3.302,14.066-9.871,26.023-19.866,36.215
		C681.948,780.474,677.752,783.958,673.218,787.021z"/>
	<path fill="#3ABAD4" d="M729.279,679.138c0.438-5.534-2.701-9.301-8.396-10.074c-1.868-0.255-3.733-0.537-5.599-0.819
		c-1.88-0.284-3.792-0.572-5.722-0.835c-1.998-0.272-4.015-0.518-6.035-0.701c-3.234-0.295-6.468-0.596-9.701-0.896
		c-0.946-0.088-1.893-0.174-2.838-0.262c-15.901-1.478-32.344-3.007-48.578-4.043c-9.105-0.58-18.046-0.875-26.572-0.875
		c-28.304,0-53.838,3.128-78.06,9.562c-9.961,2.648-19.35,3.936-28.702,3.936c-8.083,0-16.159-1.014-24.003-3.012
		c-17.609-4.488-34.157-7.488-50.027-9.066c-8.854-0.881-17.499-1.324-25.994-1.324c-3.343,0-6.699,0.069-10.019,0.206l-0.109-1.71
		l-4.099,0.381c-8.679,0.806-17.361,1.595-26.042,2.384c-16.67,1.516-33.794,3.074-50.819,4.748
		c-4.139,0.407-8.273,0.818-12.391,1.24c-6.927,0.71-11.504,1.178-14.198,4.415c-2.574,3.094-2.313,7.084-1.838,14.33l0.013,0.197
		c0.483,7.349,5.904,8.289,8.209,8.352c8.518,0.24,11.284,7.438,12.105,13.433c0.64,4.671,1.006,9.521,1.36,14.211
		c0.236,3.132,0.481,6.371,0.806,9.571c0.596,5.862,1.827,11.45,3.634,16.745c4.985,14.606,14.476,26.922,28.042,36.145
		c2.981,2.025,6.011,3.869,9.079,5.562c15.411,8.506,31.879,12.824,49.098,12.824c13.715,0,28.041-2.747,42.58-8.163
		c26.652-9.933,43.812-29.531,49.623-56.679c1.215-5.682,1.555-11.492,1.883-17.111c0.123-2.103,0.25-4.276,0.421-6.381
		c0.495-6.107,4.23-10.776,9.751-12.184c1.123-0.287,2.293-0.433,3.478-0.433c4.639,0,8.617,2.166,10.134,5.514
		c1.595,3.534,2.521,8.187,2.752,13.829c1.377,33.64,17.399,57.772,47.623,71.729c13.726,6.336,28.545,9.549,44.045,9.548
		c8.335,0,17.037-0.93,25.866-2.765c12.502-2.597,23.604-7.173,33.18-13.645c4.534-3.063,8.73-6.548,12.564-10.457
		c9.995-10.191,16.564-22.148,19.866-36.215c1.044-4.446,1.751-9.11,2.145-13.99c0.152-1.895,0.274-3.81,0.33-5.771
		c0.095-3.409,0.521-6.94,1.237-10.48c0.63-3.111,1.481-6.23,2.56-9.282c0.572-1.621,3.6-3.983,6.234-4.862l1.307-0.436
		c8.752-2.901,9.854-4.506,9.825-14.309c-0.001-0.27-0.007-0.539-0.013-0.809C729.263,679.936,729.253,679.487,729.279,679.138z
		 M474.535,729.581c-2.438,24.312-19.902,51.252-61.607,53.952c-0.597,0.039-1.243,0.058-2.033,0.058
		c-0.639,0-1.278-0.012-1.917-0.023c-0.688-0.013-1.375-0.024-2.05-0.024c-20.733-0.062-37.424-5.926-51.029-17.929
		c-16.87-14.876-22.956-43.085-13.566-62.883c4.334-9.143,12.117-15.033,24.495-18.54c9.609-2.722,19.889-3.99,32.351-3.99
		c5.993,0,12.422,0.285,20.846,0.924c10.327,0.781,19.868,2.499,28.361,5.105C468.017,692.248,476.815,706.834,474.535,729.581z
		 M634.78,780.718c-8.224,2.079-16.253,3.133-23.864,3.133c-13.201,0-25.754-3.183-37.309-9.457
		c-16.016-8.701-25.72-22.396-28.842-40.7c-1.821-10.68-0.995-19.851,2.525-28.038c5.191-12.08,15.596-19.109,32.746-22.121
		c8.123-1.43,16.587-2.19,24.773-2.926c3.59-0.323,7.299-0.656,10.958-1.044l0.266,0.015c14.07,0.735,27.36,1.431,40.211,6.001
		c16.181,5.747,23.684,16.54,24.326,34.994C681.602,750.271,664.056,773.317,634.78,780.718z"/>
</g>
</svg>
