<?xml version="1.0" encoding="utf-8"?>
<!-- Generator: Adobe Illustrator 16.0.0, SVG Export Plug-In . SVG Version: 6.00 Build 0)  -->
<!DOCTYPE svg PUBLIC "-//W3C//DTD SVG 1.1//EN" "http://www.w3.org/Graphics/SVG/1.1/DTD/svg11.dtd">
<svg version="1.1" id="Layer_1" xmlns="http://www.w3.org/2000/svg" xmlns:xlink="http://www.w3.org/1999/xlink" x="0px" y="0px"
	 width="1024px" height="1024px" viewBox="0 0 1024 1024" enable-background="new 0 0 1024 1024" xml:space="preserve">
<g>
	<path fill="#3ABAD4" d="M708.291,722.349c-13.039,113.011-88.268,205.979-197.15,205.979c-108.882,0-197.148-92.22-197.148-205.979
		c0-113.759,97.897-614.006,176.553-626.209C604.322,78.482,725.945,569.337,708.291,722.349z"/>
	<path fill="#121B26" d="M685.995,745.889C666.438,831,608.704,909,510.893,909c-97.81,0-153.5-73-179.104-185
		c-18.179-79.519,141.034-39,238.982-105.74C701.428,529.232,704.263,666.388,685.995,745.889z"/>
	<path fill="#3ABAD4" stroke="#3ABAD4" stroke-width="8" stroke-miterlimit="10" d="M395.299,665.123
		c30.164-1.754,59.688,2.454,88.786,9.87c18.417,4.692,36.523,3.903,54.721-0.933c33.925-9.012,68.514-10.783,103.349-8.561
		c20.368,1.3,40.687,3.343,61.01,5.192c5.75,0.522,11.451,1.554,17.177,2.335c3.384,0.46,5.235,2.197,4.95,5.795
		c-0.062,0.8-0.009,1.608-0.006,2.412c0.025,8.626-0.13,8.163-8.403,10.937c-3.438,1.147-7.624,4.179-8.735,7.324
		c-2.353,6.658-3.827,13.922-4.023,20.983c-0.581,20.483-6.73,38.534-21.198,53.287c-12.061,12.296-27.019,19.52-43.702,22.986
		c-23.082,4.796-45.834,3.466-67.421-6.499c-28.946-13.366-43.993-36.264-45.303-68.261c-0.212-5.166-1.009-10.671-3.104-15.311
		c-2.92-6.451-11.135-9.128-18.247-7.312c-7.198,1.836-12.122,8.004-12.748,15.736c-0.624,7.674-0.629,15.503-2.228,22.979
		c-5.68,26.532-22.256,44.506-47.109,53.768c-33.622,12.525-66.772,10.829-97.111-9.785c-17.331-11.782-27.778-28.66-29.945-49.985
		c-0.81-7.962-1.097-15.995-2.183-23.921c-1.135-8.289-5.449-16.592-15.955-16.888c-2.958-0.081-4.138-1.685-4.331-4.616
		c-0.845-12.908-0.942-13.33,12.439-14.7c29.711-3.042,59.475-5.607,89.215-8.369C395.228,664.104,395.261,664.612,395.299,665.123z
		 M615.661,675.554c-12.115,1.293-24.342,1.933-36.317,4.041c-15.369,2.699-29.031,8.898-35.728,24.481
		c-4.177,9.713-4.558,19.94-2.794,30.289c3.32,19.461,13.548,34.129,30.876,43.543c20.362,11.058,41.965,12.274,64.063,6.688
		c30.986-7.833,49.91-32.392,48.807-64.161c-0.646-18.575-8.045-31.897-26.984-38.625
		C644.001,676.98,629.943,676.302,615.661,675.554z M406.916,787.543c2.092,0,4.188,0.119,6.274-0.019
		c30.078-1.947,61.478-19.192,65.325-57.544c2.337-23.313-6.313-40.632-28.958-47.574c-9.412-2.888-19.397-4.525-29.232-5.269
		c-18.271-1.386-36.651-1.875-54.589,3.206c-11.688,3.311-21.561,9.163-27.018,20.675c-10.118,21.335-3.649,51.562,14.535,67.596
		C368.573,782.131,386.832,787.483,406.916,787.543z"/>
</g>
<g>
	<path fill="#121B26" d="M420.514,461.143c3.908,2.521,6.608,5.452,8.103,8.797c1.491,3.344,2.235,9.104,2.235,17.279v11.418
		c0,5.094,0.426,8.294,1.273,9.605s2.455,2.198,4.821,2.661c0.563,0.152,1.414,0.309,2.546,0.463
		c5.812,0.874,8.718,3.729,8.718,8.562c0,2.365-0.849,4.271-2.546,5.709c-1.697,1.439-3.961,2.16-6.789,2.16
		c-3.601,0-7.086-0.592-10.453-1.772c-3.37-1.186-6.16-2.806-8.371-4.86c-2.418-2.212-4.127-5.066-5.13-8.562
		c-1.003-3.498-1.504-9.488-1.504-17.977v-8.949c0-9.258-4.27-14.581-12.807-15.97c-0.36-0.104-0.617-0.154-0.771-0.154
		c-2.469-0.411-4.295-1.285-5.478-2.623c-1.186-1.337-1.774-3.266-1.774-5.786c0-2.211,0.501-3.96,1.504-5.244
		c1.003-1.285,2.61-2.211,4.822-2.777c0.977-0.309,2.392-0.645,4.243-1.003c6.84-1.285,10.261-6.377,10.261-15.275v-9.181
		c0-7.869,0.386-13.385,1.157-16.548c0.771-3.163,2.083-5.929,3.935-8.294c2.16-2.623,5.054-4.667,8.682-6.133
		c3.625-1.466,7.624-2.2,11.994-2.2c2.728,0,4.911,0.708,6.56,2.123c1.646,1.415,2.469,3.276,2.469,5.593
		c0,4.835-3.112,7.741-9.335,8.718c-0.566,0.052-0.978,0.104-1.234,0.154c-2.57,0.412-4.347,1.351-5.321,2.814
		c-0.979,1.468-1.466,4.796-1.466,9.99v11.341c0,7.715-0.771,13.373-2.314,16.975C426.994,455.794,424.319,458.777,420.514,461.143z
		"/>
	<path fill="#121B26" d="M511.24,470.015H529.6c0.822,0,1.479,0.154,1.97,0.464c0.485,0.31,0.73,0.722,0.73,1.233
		c0,0.258-0.063,0.579-0.191,0.965c-0.131,0.388-0.297,0.812-0.501,1.272l-23.067,45.209c-0.36,0.822-0.875,1.479-1.543,1.968
		c-0.669,0.488-1.415,0.732-2.237,0.732c-0.206,0-0.451-0.038-0.731-0.115c-0.283-0.077-0.555-0.145-0.812-0.193l-5.861-2.083
		c-0.875-0.309-1.543-0.73-2.008-1.271c-0.463-0.54-0.692-1.119-0.692-1.736c0-0.565,0.012-0.99,0.039-1.271
		c0.022-0.283,0.062-0.556,0.113-0.812l10.955-40.117c0.463-1.748,1.066-2.893,1.812-3.433
		C508.32,470.285,509.543,470.015,511.24,470.015z M514.712,427.66c4.834,0,8.729,1.325,11.688,3.974
		c2.957,2.649,4.437,6.107,4.437,10.376c0,4.372-1.479,7.921-4.437,10.646c-2.958,2.727-6.854,4.089-11.688,4.089
		c-4.73,0-8.577-1.362-11.533-4.089c-2.959-2.728-4.437-6.274-4.437-10.646c0-4.217,1.478-7.663,4.437-10.338
		C506.135,428.998,509.979,427.66,514.712,427.66z"/>
	<path fill="#121B26" d="M609.836,461.143c-3.755-2.363-6.403-5.349-7.946-8.947c-1.543-3.602-2.312-9.26-2.312-16.975V423.88
		v-4.938c0-2.417-0.617-4.255-1.854-5.518c-1.232-1.26-3.292-2.096-6.172-2.508c-3.755-0.514-6.249-1.389-7.481-2.623
		c-1.234-1.233-1.854-3.111-1.854-5.632c0-2.571,0.783-4.577,2.354-6.018c1.565-1.439,3.792-2.162,6.673-2.162
		c3.806,0,7.354,0.566,10.646,1.697c3.291,1.134,6.043,2.729,8.255,4.783c2.521,2.314,4.295,5.185,5.323,8.604
		c1.028,3.421,1.543,9.448,1.543,18.091v9.181c0,8.949,3.522,14.118,10.569,15.507c1.697,0.26,3.009,0.517,3.935,0.771
		c2.16,0.564,3.755,1.505,4.783,2.814c1.028,1.312,1.543,3.049,1.543,5.207c0,2.266-0.54,4.077-1.62,5.439
		c-1.08,1.363-2.698,2.302-4.858,2.813c-0.823,0.154-1.98,0.36-3.474,0.617c-7.252,1.391-10.878,6.609-10.878,15.661v8.949
		c0,8.126-0.386,13.771-1.155,16.935c-0.771,3.164-2.084,5.852-3.937,8.062c-2.006,2.417-4.897,4.385-8.679,5.901
		c-3.781,1.518-7.729,2.274-11.844,2.274c-2.881,0-5.13-0.731-6.75-2.198c-1.619-1.466-2.432-3.511-2.432-6.134
		c0-2.418,0.604-4.243,1.812-5.478c1.208-1.235,3.716-2.16,7.521-2.777c3.138-0.463,5.259-1.312,6.364-2.546
		c1.104-1.234,1.659-3.215,1.659-5.94v-4.089v-11.418c0-8.178,0.745-13.938,2.236-17.281
		C603.304,466.595,605.979,463.663,609.836,461.143z"/>
</g>
</svg>
