<?xml version="1.0" encoding="utf-8"?>
<!-- Generator: Adobe Illustrator 16.0.0, SVG Export Plug-In . SVG Version: 6.00 Build 0)  -->
<!DOCTYPE svg PUBLIC "-//W3C//DTD SVG 1.1//EN" "http://www.w3.org/Graphics/SVG/1.1/DTD/svg11.dtd">
<svg version="1.1" id="Layer_1" xmlns="http://www.w3.org/2000/svg" xmlns:xlink="http://www.w3.org/1999/xlink" x="0px" y="0px"
	 width="269.512px" height="159.756px" viewBox="0 0 269.512 159.756" enable-background="new 0 0 269.512 159.756"
	 xml:space="preserve">
<g>
	<path fill="#FFFFFF" d="M221.429,70.938c-1.543-3.604-2.312-9.263-2.312-16.978v-11.34v-4.938c0-2.417-0.617-4.256-1.854-5.521
		c-1.229-1.26-3.292-2.096-6.172-2.508c-3.755-0.514-6.249-1.389-7.479-2.623c-1.234-1.233-1.854-3.111-1.854-5.632
		c0-2.571,0.783-4.577,2.354-6.021c1.562-1.438,3.792-2.161,6.673-2.161c3.806,0,7.354,0.565,10.646,1.696
		c3.291,1.136,6.043,2.729,8.257,4.783c2.521,2.314,4.295,5.187,5.321,8.604c1.028,3.421,1.543,9.445,1.543,18.091v9.181
		c0,8.949,3.522,14.118,10.569,15.507c1.697,0.261,3.009,0.52,3.935,0.771c2.16,0.562,3.757,1.505,4.783,2.812
		c1.028,1.312,1.543,3.05,1.543,5.207c0,2.269-0.54,4.077-1.62,5.439c-1.078,1.361-2.695,2.302-4.855,2.812
		c-0.823,0.154-1.98,0.36-3.475,0.617c-7.254,1.392-10.88,6.609-10.88,15.661v8.949c0,8.126-0.386,13.771-1.152,16.935
		c-0.771,3.164-2.084,5.854-3.938,8.062c-2.006,2.417-4.896,4.385-8.679,5.898c-3.781,1.521-7.729,2.274-11.844,2.274
		c-2.883,0-5.132-0.731-6.75-2.198c-1.619-1.466-2.435-3.511-2.435-6.134c0-2.418,0.604-4.243,1.812-5.479
		c1.208-1.232,3.716-2.157,7.521-2.774c3.14-0.463,5.26-1.312,6.364-2.546c1.104-1.234,1.659-3.217,1.659-5.94v-4.089V105.94
		c0-8.178,0.745-13.938,2.233-17.281c1.498-3.331,4.175-6.263,8.03-8.783C225.621,77.522,222.972,74.536,221.429,70.938z"/>
	<path fill="#FFFFFF" d="M118.282,110.251c0-4.372,1.478-7.917,4.437-10.646c2.956-2.728,6.806-4.089,11.533-4.089
		c4.834,0,8.73,1.361,11.688,4.089c2.958,2.726,4.437,6.273,4.437,10.646c0,4.27-1.479,7.728-4.437,10.376
		c-2.959,2.648-6.854,3.975-11.688,3.975c-4.732,0-8.577-1.338-11.533-4.013C119.759,117.914,118.282,114.468,118.282,110.251z"/>
	<path fill="#FFFFFF" d="M114.2,35.801c0-0.616,0.228-1.195,0.689-1.735c0.468-0.542,1.136-0.962,2.011-1.271l5.858-2.083
		c0.256-0.047,0.529-0.116,0.812-0.192c0.277-0.077,0.522-0.115,0.729-0.115c0.822,0,1.568,0.244,2.237,0.731
		c0.668,0.489,1.183,1.146,1.543,1.969l23.067,45.209c0.203,0.46,0.367,0.883,0.501,1.271c0.128,0.386,0.188,0.707,0.188,0.965
		c0,0.511-0.245,0.922-0.729,1.233c-0.492,0.31-1.149,0.464-1.973,0.464h-18.359c-1.697,0-2.92-0.271-3.664-0.812
		c-0.746-0.54-1.351-1.686-1.812-3.434l-10.955-40.117c-0.05-0.255-0.091-0.528-0.11-0.812
		C114.208,36.791,114.197,36.366,114.2,35.801z"/>
	<path fill="#FFFFFF" d="M13.63,74.643c1.003-1.285,2.61-2.211,4.822-2.777c0.977-0.309,2.392-0.646,4.243-1.003
		c6.84-1.285,10.261-6.377,10.261-15.275v-9.181c0-7.869,0.386-13.385,1.157-16.548c0.771-3.163,2.083-5.929,3.935-8.294
		c2.16-2.623,5.054-4.667,8.685-6.133c3.625-1.466,7.624-2.201,11.991-2.201c2.729,0,4.911,0.708,6.562,2.124
		c1.646,1.415,2.469,3.273,2.469,5.593c0,4.835-3.11,7.741-9.335,8.718c-0.564,0.052-0.978,0.104-1.232,0.154
		c-2.569,0.412-4.349,1.351-5.32,2.812c-0.979,1.471-1.466,4.796-1.466,9.99v11.341c0,7.715-0.771,13.373-2.314,16.978
		c-1.55,3.597-4.225,6.58-8.03,8.943c3.908,2.521,6.608,5.452,8.104,8.799c1.491,3.345,2.234,9.104,2.234,17.277v11.418
		c0,5.096,0.427,8.294,1.271,9.605c0.847,1.311,2.455,2.197,4.821,2.661c0.562,0.149,1.414,0.309,2.546,0.463
		c5.812,0.874,8.718,3.729,8.718,8.562c0,2.365-0.849,4.271-2.546,5.709c-1.697,1.439-3.961,2.16-6.789,2.16
		c-3.601,0-7.086-0.592-10.453-1.771c-3.37-1.188-6.16-2.809-8.371-4.86c-2.418-2.212-4.127-5.066-5.13-8.562
		s-1.504-9.486-1.504-17.978v-8.949c0-9.258-4.27-14.581-12.807-15.97c-0.36-0.104-0.617-0.154-0.771-0.154
		c-2.469-0.411-4.295-1.285-5.478-2.623c-1.188-1.337-1.774-3.266-1.774-5.785C12.126,77.675,12.627,75.926,13.63,74.643z"/>
</g>
</svg>
